# xmcd
#
# Track frame offsets:
#	150
#	12025
#	25502
#	38737
#	52235
#	63672
#	77900
#	90797
#	103179
#	116960
#	132722
#	146760
#	164252
#	178807
#	195210
#
# Disc length: 2762 seconds
# Revision: 6
# Processed by: cddbd v1.5.2PL0 Copyright (c) Steve Scherf et al.
# Submitted via: dBpowerAMP V12.0
#
DISCID=cc0ac80f
DTITLE=Various Artist - Classic Country - 1975-1979 D2
DYEAR=2010
DGENRE=Country
TTITLE0=Johnny Paycheck - Take This Job and Shove It
TTITLE1=Willie Nelson - Good Hearted Woman
TTITLE2=Crystal Gayle - Talking In Your Sleep
TTITLE3=Glen Campbell - Southern Night
TTITLE4=Dave and Sugar - Golden Tears
TTITLE5=Don Williams - Tulsa Time
TTITLE6=Eddie Rabbitt - Every Which Way But Loose
TTITLE7=Freddy Fender - Wasted Days and Wasted Nights
TTITLE8=Tammy Wynette - Golden Ring
TTITLE9=The Oak Ridge Boys - Sail Away
TTITLE10=Loretta Lynn - She's Got You
TTITLE11=Emmylou Harris - Together Again
TTITLE12=Charley Pride - Burgers and Fries
TTITLE13=Ronnie Milsap - It Was Almost Like A Song
TTITLE14=Charlie Rich - Rollin' With the Flow
EXTD=
EXTT0=
EXTT1=
EXTT2=
EXTT3=
EXTT4=
EXTT5=
EXTT6=
EXTT7=
EXTT8=
EXTT9=
EXTT10=
EXTT11=
EXTT12=
EXTT13=
EXTT14=
PLAYORDER=
